<svg xmlns="http://www.w3.org/2000/svg" xmlns:xlink="http://www.w3.org/1999/xlink" viewBox="0,0,256,256" width="50px" height="50px" fill-rule="nonzero"><g fill="#339af0" fill-rule="nonzero" stroke="none" stroke-width="1" stroke-linecap="butt" stroke-linejoin="miter" stroke-miterlimit="10" stroke-dasharray="" stroke-dashoffset="0" font-family="none" font-weight="none" font-size="none" text-anchor="none" style="mix-blend-mode: normal"><g transform="scale(5.12,5.12)"><path d="M14,4c-5.51133,0 -10,4.48867 -10,10v22c0,5.51133 4.48867,10 10,10h22c5.51133,0 10,-4.48867 10,-10v-22c0,-5.51133 -4.48867,-10 -10,-10zM14,6h22c4.43067,0 8,3.56933 8,8v22c0,4.43067 -3.56933,8 -8,8h-22c-4.43067,0 -8,-3.56933 -8,-8v-22c0,-4.43067 3.56933,-8 8,-8zM18,9c-2.74952,0 -5,2.25048 -5,5v22c0,2.74952 2.25048,5 5,5h14c2.74952,0 5,-2.25048 5,-5v-22c0,-2.74952 -2.25048,-5 -5,-5zM18,11h14c1.66848,0 3,1.33152 3,3v22c0,1.66848 -1.33152,3 -3,3h-14c-1.66848,0 -3,-1.33152 -3,-3v-22c0,-1.66848 1.33152,-3 3,-3zM18,13c-0.552,0 -1,0.448 -1,1v4c0,0.552 0.448,1 1,1h14c0.552,0 1,-0.448 1,-1v-4c0,-0.552 -0.448,-1 -1,-1zM19,21c-1.10457,0 -2,0.89543 -2,2c0,1.10457 0.89543,2 2,2c1.10457,0 2,-0.89543 2,-2c0,-1.10457 -0.89543,-2 -2,-2zM25,21c-1.10457,0 -2,0.89543 -2,2c0,1.10457 0.89543,2 2,2c1.10457,0 2,-0.89543 2,-2c0,-1.10457 -0.89543,-2 -2,-2zM31,21c-1.10457,0 -2,0.89543 -2,2c0,1.10457 0.89543,2 2,2c1.10457,0 2,-0.89543 2,-2c0,-1.10457 -0.89543,-2 -2,-2zM19,27c-1.10457,0 -2,0.89543 -2,2c0,1.10457 0.89543,2 2,2c1.10457,0 2,-0.89543 2,-2c0,-1.10457 -0.89543,-2 -2,-2zM25,27c-1.10457,0 -2,0.89543 -2,2c0,1.10457 0.89543,2 2,2c1.10457,0 2,-0.89543 2,-2c0,-1.10457 -0.89543,-2 -2,-2zM31,27c-1.10457,0 -2,0.89543 -2,2c0,1.10457 0.89543,2 2,2c1.10457,0 2,-0.89543 2,-2c0,-1.10457 -0.89543,-2 -2,-2zM19,33c-1.105,0 -2,0.895 -2,2c0,1.105 0.895,2 2,2h6c1.105,0 2,-0.895 2,-2c0,-1.105 -0.895,-2 -2,-2zM31,33c-1.10457,0 -2,0.89543 -2,2c0,1.10457 0.89543,2 2,2c1.10457,0 2,-0.89543 2,-2c0,-1.10457 -0.89543,-2 -2,-2z"></path></g></g></svg>